<svg xmlns="http://www.w3.org/2000/svg" viewBox="0 0 670.48 388.7"><defs><style>.cls-1,.cls-16,.cls-18{fill:#fff;}.cls-1{stroke:#231f20;}.cls-1,.cls-15,.cls-16,.cls-17{stroke-miterlimit:10;}.cls-2{font-size:12px;}.cls-14,.cls-2{fill:#231f20;}.cls-18,.cls-2{font-family:MyriadPro-Regular, Myriad Pro;}.cls-3{letter-spacing:0em;}.cls-4{letter-spacing:0.02em;}.cls-5{letter-spacing:0em;}.cls-6{letter-spacing:0em;}.cls-7{letter-spacing:-0.01em;}.cls-8{letter-spacing:0em;}.cls-9{letter-spacing:0em;}.cls-10{letter-spacing:-0.01em;}.cls-11{letter-spacing:-0.01em;}.cls-12{letter-spacing:0.01em;}.cls-13{letter-spacing:-0.01em;}.cls-15{fill:none;stroke:#808285;stroke-width:0.5px;}.cls-16{stroke:#a7a9ac;}.cls-16,.cls-17{stroke-width:0.75px;}.cls-17{fill:#fdfefe;stroke:#fff;}.cls-18{font-size:13px;}.cls-19{letter-spacing:-0.01em;}.cls-20{letter-spacing:-0.01em;}.cls-21{letter-spacing:-0.01em;}.cls-22{letter-spacing:-0.01em;}.cls-23{letter-spacing:0em;}.cls-24{letter-spacing:0em;}.cls-25{letter-spacing:-0.01em;}.cls-26{letter-spacing:0.04em;}.cls-27{letter-spacing:-0.01em;}</style></defs><title>Asset 15</title><g id="Layer_2" data-name="Layer 2"><g id="Layer_1-2" data-name="Layer 1"><rect class="cls-1" x="0.5" y="0.5" width="144.31" height="144.31"/><rect class="cls-1" x="218.62" y="0.5" width="155.18" height="155.18"/><rect class="cls-1" x="397.04" y="0.5" width="243.66" height="243.66"/><rect class="cls-1" x="9.53" y="312.44" width="635.96" height="75.76"/><text class="cls-2" transform="translate(315.3 23.7)">Black<tspan class="cls-3" x="26.12" y="0">R</tspan><tspan x="32.63" y="0">ock</tspan></text><text class="cls-2" transform="translate(105.4 19.85)"><tspan class="cls-4">O</tspan><tspan x="8.47" y="0">thers</tspan></text><rect class="cls-1" x="313.87" y="106.82" width="119.87" height="119.87"/><text class="cls-2" transform="translate(373.8 132.42)"><tspan class="cls-5">S</tspan><tspan x="5.88" y="0">t</tspan><tspan class="cls-6" x="9.85" y="0">a</tspan><tspan class="cls-7" x="15.59" y="0">t</tspan><tspan x="19.49" y="0">e</tspan><tspan class="cls-8" x="25.5" y="0">S</tspan><tspan class="cls-9" x="31.38" y="0">t</tspan><tspan class="cls-10" x="35.35" y="0">r</tspan><tspan x="39.16" y="0">eet</tspan></text><text class="cls-2" transform="translate(198.06 263.49)"><tspan class="cls-11">C</tspan><tspan x="6.83" y="0">olle</tspan><tspan class="cls-12" x="25.09" y="0">c</tspan><tspan x="30.62" y="0">ti</tspan><tspan class="cls-13" x="37.4" y="0">v</tspan><tspan x="43.06" y="0">e 81% sha</tspan><tspan class="cls-10" x="93.17" y="0">r</tspan><tspan x="96.97" y="0">e of ind</tspan><tspan class="cls-8" x="134.4" y="0">e</tspan><tspan x="140.37" y="0">x fund assets</tspan></text><rect class="cls-14" x="9.53" y="312.44" width="559.65" height="75.76"/><line class="cls-15" x1="182.82" y1="271.72" x2="670.23" y2="271.72"/><line class="cls-15" x1="182.82" y1="271.72" x2="182.82" y2="235.42"/><line class="cls-15" x1="670.23" y1="271.72" x2="670.23" y2="235.42"/><polygon class="cls-16" points="456.64 271.5 429.15 271.5 442.9 295.31 456.64 271.5"/><polygon class="cls-17" points="456.64 269.53 429.15 269.53 442.9 293.34 456.64 269.53"/><text class="cls-18" transform="translate(105.4 356.3)"><tspan class="cls-19">C</tspan><tspan x="7.4" y="0">ombine</tspan><tspan class="cls-20" x="49.54" y="0">d</tspan><tspan x="56.74" y="0">, h</tspan><tspan class="cls-21" x="69.41" y="0">a</tspan><tspan class="cls-20" x="75.57" y="0">v</tspan><tspan x="81.69" y="0">e </tspan><tspan class="cls-22" x="90.96" y="0">c</tspan><tspan x="96.71" y="0">o</tspan><tspan class="cls-23" x="103.84" y="0">n</tspan><tspan x="111.01" y="0">t</tspan><tspan class="cls-20" x="115.31" y="0">r</tspan><tspan class="cls-24" x="119.43" y="0">ol </tspan><tspan class="cls-25" x="132.39" y="0">o</tspan><tspan class="cls-20" x="139.44" y="0">v</tspan><tspan x="145.56" y="0" xml:space="preserve">er  88% of the</tspan><tspan class="cls-26" x="219.94" y="0"> </tspan><tspan x="223.22" y="0">la</tspan><tspan class="cls-21" x="232.55" y="0">r</tspan><tspan x="236.7" y="0">gest 500 </tspan><tspan class="cls-27" x="285.45" y="0">c</tspan><tspan class="cls-24" x="291.19" y="0">ompanies</tspan></text></g></g></svg>